<?xml version="1.0" encoding="utf-8"?>
<!-- Generator: Adobe Illustrator 22.0.1, SVG Export Plug-In . SVG Version: 6.00 Build 0)  -->
<svg version="1.1" id="Слой_1" xmlns="http://www.w3.org/2000/svg" xmlns:xlink="http://www.w3.org/1999/xlink" x="0px" y="0px"
	 viewBox="0 0 645.7 140.7" style="enable-background:new 0 0 645.7 140.7;" xml:space="preserve">
<style type="text/css">
	.st0{display:none;}
	.st1{display:inline;}
	.st2{fill:#FFFFFF;}
	.st3{fill:#9C4C46;}
	.st4{fill:#BBD532;}
</style>
<g id="Слой_1__x28_копия_x29_">
	<g id="Слой_1_3_" class="st0">
		<g class="st1">
			<g>
				<path class="st2" d="M47.9,114.4"/>
			</g>
		</g>
	</g>
	<polyline class="st2" points="21.1,113.4 45,53 22.3,16.1 22.3,16.1 98.4,56.4 21.1,113.4 	"/>
</g>
<g id="Слой_1_2_">
	<g id="Слой_1_1_" class="st0">
		<g class="st1">
			<g>
				<path class="st3" d="M167.2,443.1"/>
			</g>
		</g>
	</g>
</g>
<g id="Слой_2_1_">
	<polygon class="st4" points="19.8,10.7 143.5,59.5 87.2,10.7 	"/>
	<polygon class="st4" points="19.8,126.4 143.5,59.5 92.5,126.4 	"/>
</g>
<g>
	<path class="st2" d="M199.6,26.7c0,5.1-1.6,9.1-4.9,11.9c-3.2,2.7-7.8,4.1-13.8,4.1h-4.3v17.1h-10.2V11.7h15.3
		c5.9,0,10.3,1.2,13.3,3.7C198.1,18,199.6,21.7,199.6,26.7z M176.5,34.3h3.4c3.1,0,5.5-0.6,7-1.9c1.6-1.2,2.3-3,2.3-5.4
		s-0.6-4.2-2-5.3s-3.4-1.7-6.1-1.7h-4.6L176.5,34.3L176.5,34.3z"/>
	<path class="st2" d="M218.9,41.3v18.4h-10.2v-48h14c6.6,0,11.4,1.2,14.5,3.5c3.1,2.4,4.7,6,4.7,10.8c0,2.8-0.8,5.3-2.3,7.5
		c-1.6,2.2-3.7,3.9-6.7,5.1c7.3,10.8,12,17.8,14.2,20.9h-11.4l-11.5-18.4L218.9,41.3L218.9,41.3z M218.9,33.1h3.3
		c3.2,0,5.6-0.5,7.2-1.6c1.5-1.1,2.3-2.7,2.3-5.1s-0.8-3.9-2.4-4.9s-4-1.4-7.3-1.4h-3.1V33.1L218.9,33.1z"/>
	<path class="st2" d="M296.9,35.6c0,8-2,14.1-5.9,18.4c-4,4.3-9.6,6.4-16.9,6.4c-7.4,0-13-2.1-16.9-6.4s-5.9-10.5-5.9-18.4
		s2-14.1,5.9-18.4c4-4.3,9.7-6.3,17-6.3s13,2.1,16.9,6.4S296.9,27.7,296.9,35.6z M261.7,35.6c0,5.4,1.1,9.4,3.1,12.2
		c2,2.7,5.1,4.1,9.1,4.1c8.2,0,12.2-5.4,12.2-16.2s-4.1-16.2-12.2-16.2c-4.1,0-7.1,1.3-9.2,4.1S261.7,30.3,261.7,35.6z"/>
</g>
<g>
	<path class="st4" d="M166.3,126.4V78.5h10.2v47.9H166.3z"/>
	<path class="st4" d="M231,126.4h-12.9l-20.8-36.2H197c0.4,6.4,0.6,10.9,0.6,13.7v22.5h-9.1V78.5h12.9l20.8,35.9h0.3
		c-0.3-6.3-0.6-10.6-0.6-13.1V78.5h9.1V126.4L231,126.4z"/>
	<path class="st4" d="M261.4,126.4h-10.2V87h-13v-8.4h36.2V87h-13V126.4L261.4,126.4z"/>
	<path class="st4" d="M309.5,126.4H282V78.5h27.5v8.4H292v10.5h16.2v8.4H292V118h17.5V126.4z"/>
	<path class="st4" d="M337.6,99.6h19v24.9c-3.1,1-6,1.7-8.7,2.1s-5.4,0.6-8.4,0.6c-7.3,0-12.7-2.1-16.5-6.4s-5.7-10.3-5.7-18.3
		c0-7.7,2.2-13.7,6.6-18c4.3-4.3,10.6-6.4,18.4-6.4c4.9,0,9.6,1,14.3,2.9l-3.4,8.1c-3.5-1.8-7.1-2.7-10.9-2.7c-4.3,0-8,1.5-10.5,4.5
		s-3.9,6.8-3.9,11.9c0,5.2,1.1,9.2,3.2,11.9c2.1,2.7,5.2,4.1,9.2,4.1c2.1,0,4.3-0.3,6.4-0.7V108h-9.1V99.6L337.6,99.6z"/>
	<path class="st4" d="M378.1,108.1v18.3h-10.2V78.5h14c6.6,0,11.3,1.1,14.4,3.5s4.8,6,4.8,10.8c0,2.8-0.8,5.3-2.4,7.5
		c-1.5,2.2-3.8,3.9-6.6,5.2c7.3,10.8,11.9,17.7,14.1,20.8h-11.3L383.4,108L378.1,108.1L378.1,108.1z M378.1,99.7h3.2
		c3.2,0,5.6-0.6,7.1-1.5s2.2-2.8,2.2-5s-0.8-3.9-2.4-4.9c-1.5-1-3.9-1.4-7.3-1.4H378v12.9L378.1,99.7L378.1,99.7z"/>
	<path class="st4" d="M441.5,126.4L438,115h-17.5l-3.5,11.5h-10.9L423,78.4h12.4l16.9,48.1L441.5,126.4L441.5,126.4z M435.7,106.4
		c-3.2-10.3-5-16.2-5.4-17.5c-0.4-1.3-0.7-2.4-0.8-3.2c-0.7,2.8-2.8,9.6-6.1,20.7C423.4,106.4,435.7,106.4,435.7,106.4z"/>
	<path class="st4" d="M477,126.4h-10.2V87h-13v-8.4H490V87h-13V126.4L477,126.4z"/>
	<path class="st4" d="M497.4,126.4V78.5h10.2v47.9H497.4z"/>
	<path class="st4" d="M563.1,102.4c0,8-2,14-5.9,18.3s-9.5,6.4-16.9,6.4s-13-2.1-16.9-6.4c-3.9-4.3-5.9-10.3-5.9-18.3
		s2-14.1,5.9-18.3c3.9-4.2,9.6-6.3,16.9-6.3s13,2.1,16.9,6.3C561.1,88.3,563.1,94.4,563.1,102.4z M528,102.4c0,5.3,1,9.4,3.1,12
		c2.1,2.7,5,4.1,9.1,4.1c8.1,0,12.2-5.4,12.2-16.2s-4.1-16.2-12-16.2c-4.1,0-7.1,1.4-9.1,4.1C529.3,92.7,528,97.1,528,102.4z"/>
	<path class="st4" d="M615.5,126.4h-13l-20.8-36.2h-0.3c0.4,6.4,0.6,10.9,0.6,13.7v22.5h-9.1V78.5h12.9l20.8,35.9h0.3
		c-0.3-6.3-0.6-10.6-0.6-13.1V78.5h9.1L615.5,126.4L615.5,126.4z"/>
</g>
</svg>
